<svg width="239" height="83" viewBox="0 0 239 83" fill="none" xmlns="http://www.w3.org/2000/svg">
<g filter="url(#filter0_d_1231_4244)">
<rect x="9" y="9" width="210.384" height="54.3428" rx="9.43229" fill="white" shape-rendering="crispEdges"/>
<rect x="7.01425" y="7.01425" width="214.356" height="58.3143" rx="11.418" stroke="url(#paint0_linear_1231_4244)" stroke-width="3.97149" shape-rendering="crispEdges"/>
<path d="M41.3044 36.2095H37.8028L37.7838 34.7387H40.9628C41.4879 34.7387 41.9465 34.6501 42.3387 34.473C42.731 34.2958 43.0346 34.0428 43.2497 33.7138C43.4712 33.3785 43.5819 32.98 43.5819 32.5181C43.5819 32.012 43.4838 31.6008 43.2877 31.2845C43.0979 30.9619 42.8037 30.7278 42.4052 30.5823C42.0129 30.4305 41.5132 30.3545 40.9058 30.3545H38.2108V42.6719H36.3794V28.8552H40.9058C41.6144 28.8552 42.247 28.928 42.8037 29.0735C43.3604 29.2126 43.8318 29.4341 44.2177 29.7377C44.6099 30.0351 44.9072 30.4146 45.1097 30.8765C45.3121 31.3383 45.4133 31.8918 45.4133 32.5371C45.4133 33.1065 45.2678 33.6221 44.9768 34.0839C44.6858 34.5394 44.2809 34.9127 43.7622 35.2037C43.2497 35.4947 42.6487 35.6813 41.9592 35.7635L41.3044 36.2095ZM41.219 42.6719H37.0816L38.1159 41.182H41.219C41.801 41.182 42.2945 41.0808 42.6993 40.8784C43.1106 40.6759 43.4237 40.3912 43.6388 40.0243C43.8539 39.6511 43.9614 39.2114 43.9614 38.7053C43.9614 38.1928 43.8697 37.75 43.6862 37.3767C43.5028 37.0035 43.2149 36.7156 42.8227 36.5132C42.4305 36.3108 41.9244 36.2095 41.3044 36.2095H38.6948L38.7138 34.7387H42.2818L42.6709 35.2701C43.3351 35.327 43.8982 35.5168 44.36 35.8395C44.8218 36.1558 45.1729 36.5607 45.4133 37.0541C45.6601 37.5476 45.7834 38.0916 45.7834 38.6863C45.7834 39.5467 45.5936 40.2742 45.2141 40.8689C44.8408 41.4572 44.3126 41.9064 43.6293 42.2164C42.9461 42.52 42.1426 42.6719 41.219 42.6719ZM50.1296 32.4043V42.6719H48.3646V32.4043H50.1296ZM48.2317 29.6808C48.2317 29.3961 48.3171 29.1557 48.4879 28.9596C48.6651 28.7635 48.9244 28.6654 49.2661 28.6654C49.6014 28.6654 49.8576 28.7635 50.0347 28.9596C50.2182 29.1557 50.3099 29.3961 50.3099 29.6808C50.3099 29.9528 50.2182 30.1869 50.0347 30.383C49.8576 30.5728 49.6014 30.6677 49.2661 30.6677C48.9244 30.6677 48.6651 30.5728 48.4879 30.383C48.3171 30.1869 48.2317 29.9528 48.2317 29.6808ZM60.5965 41.2295V42.6719H53.1283V41.2295H60.5965ZM60.3213 33.6474L53.5268 42.6719H52.4545V41.3813L59.2015 32.4043H60.3213V33.6474ZM59.5432 32.4043V33.8562H52.5304V32.4043H59.5432ZM64.4967 32.4043V42.6719H62.7316V32.4043H64.4967ZM62.5988 29.6808C62.5988 29.3961 62.6842 29.1557 62.855 28.9596C63.0321 28.7635 63.2915 28.6654 63.6331 28.6654C63.9684 28.6654 64.2246 28.7635 64.4018 28.9596C64.5852 29.1557 64.677 29.3961 64.677 29.6808C64.677 29.9528 64.5852 30.1869 64.4018 30.383C64.2246 30.5728 63.9684 30.6677 63.6331 30.6677C63.2915 30.6677 63.0321 30.5728 62.855 30.383C62.6842 30.1869 62.5988 29.9528 62.5988 29.6808ZM69.0611 34.4445V42.6719H67.2961V32.4043H68.9662L69.0611 34.4445ZM68.7005 37.149L67.8844 37.1205C67.8907 36.4183 67.9825 35.7699 68.1596 35.1752C68.3367 34.5742 68.5993 34.0523 68.9472 33.6094C69.2952 33.1666 69.7285 32.825 70.2473 32.5846C70.766 32.3378 71.367 32.2145 72.0503 32.2145C72.5311 32.2145 72.9739 32.2841 73.3788 32.4232C73.7837 32.5561 74.1348 32.768 74.4321 33.059C74.7295 33.3501 74.9604 33.7233 75.1249 34.1788C75.2894 34.6343 75.3716 35.1847 75.3716 35.83V42.6719H73.616V35.9154C73.616 35.3776 73.5243 34.9474 73.3409 34.6248C73.1637 34.3022 72.9107 34.0681 72.5817 33.9226C72.2527 33.7708 71.8668 33.6948 71.424 33.6948C70.9052 33.6948 70.4719 33.7866 70.1239 33.97C69.776 34.1535 69.4976 34.4065 69.2888 34.7292C69.0801 35.0518 68.9282 35.4219 68.8334 35.8395C68.7448 36.2507 68.7005 36.6872 68.7005 37.149ZM75.3526 36.1811L74.1759 36.5417C74.1823 35.9786 74.274 35.4377 74.4511 34.919C74.6346 34.4002 74.8971 33.9384 75.2387 33.5335C75.5867 33.1286 76.0137 32.8092 76.5198 32.5751C77.0259 32.3347 77.6048 32.2145 78.2564 32.2145C78.8068 32.2145 79.2939 32.2872 79.7178 32.4327C80.148 32.5782 80.5086 32.8028 80.7996 33.1065C81.0969 33.4038 81.3215 33.7866 81.4733 34.2547C81.6252 34.7229 81.7011 35.2796 81.7011 35.9249V42.6719H79.936V35.9059C79.936 35.3302 79.8443 34.8842 79.6608 34.5679C79.4837 34.2452 79.2306 34.0206 78.9017 33.8941C78.579 33.7613 78.1931 33.6948 77.744 33.6948C77.3581 33.6948 77.0164 33.7613 76.7191 33.8941C76.4218 34.027 76.1719 34.2104 75.9694 34.4445C75.767 34.6723 75.612 34.9348 75.5045 35.2321C75.4032 35.5295 75.3526 35.8458 75.3526 36.1811ZM86.2655 28.096V42.6719H84.5005V28.096H86.2655ZM92.6045 32.1955C93.313 32.1955 93.952 32.322 94.5214 32.5751C95.097 32.8281 95.5873 33.1856 95.9922 33.6474C96.3971 34.1029 96.7071 34.6438 96.9222 35.2701C97.1436 35.8964 97.2543 36.5828 97.2543 37.3293V37.7468C97.2543 38.4933 97.1341 39.1797 96.8937 39.8061C96.6596 40.4324 96.337 40.9733 95.9258 41.4288C95.5146 41.8842 95.0464 42.2385 94.5214 42.4916C93.9963 42.7383 93.4459 42.8585 92.8702 42.8522C92.1616 42.8522 91.5448 42.7415 91.0197 42.52C90.4947 42.2923 90.0581 41.976 89.7102 41.5711C89.3686 41.1599 89.1124 40.6759 88.9415 40.1192C88.7707 39.5625 88.6853 38.9488 88.6853 38.2782V37.1205H96.2105V38.5629H90.4409V38.8002C90.4409 39.2557 90.5263 39.6827 90.6971 40.0812C90.8679 40.4798 91.1336 40.8024 91.4942 41.0492C91.8548 41.2959 92.3135 41.4193 92.8702 41.4193C93.2498 41.4193 93.5977 41.3244 93.914 41.1346C94.2367 40.9448 94.515 40.6822 94.7491 40.347C94.9832 40.0117 95.1635 39.6226 95.29 39.1797C95.4229 38.7306 95.4893 38.2529 95.4893 37.7468V37.3293C95.4893 36.8232 95.426 36.3487 95.2995 35.9059C95.1793 35.4567 94.999 35.0645 94.7586 34.7292C94.5182 34.3876 94.2177 34.1219 93.8571 33.9321C93.4965 33.736 93.079 33.6379 92.6045 33.6379C91.9149 33.6379 91.3329 33.7391 90.8584 33.9416C90.3839 34.1377 89.9885 34.3781 89.6722 34.6628L88.9795 33.4671C89.2958 33.1634 89.745 32.8756 90.327 32.6035C90.9154 32.3315 91.6745 32.1955 92.6045 32.1955ZM107.674 32.1955C108.382 32.1955 109.021 32.322 109.591 32.5751C110.166 32.8281 110.657 33.1856 111.061 33.6474C111.466 34.1029 111.776 34.6438 111.991 35.2701C112.213 35.8964 112.324 36.5828 112.324 37.3293V37.7468C112.324 38.4933 112.203 39.1797 111.963 39.8061C111.729 40.4324 111.406 40.9733 110.995 41.4288C110.584 41.8842 110.116 42.2385 109.591 42.4916C109.066 42.7383 108.515 42.8585 107.939 42.8522C107.231 42.8522 106.614 42.7415 106.089 42.52C105.564 42.2923 105.127 41.976 104.779 41.5711C104.438 41.1599 104.182 40.6759 104.011 40.1192C103.84 39.5625 103.755 38.9488 103.755 38.2782V37.1205H111.28V38.5629H105.51V38.8002C105.51 39.2557 105.596 39.6827 105.766 40.0812C105.937 40.4798 106.203 40.8024 106.563 41.0492C106.924 41.2959 107.383 41.4193 107.939 41.4193C108.319 41.4193 108.667 41.3244 108.983 41.1346C109.306 40.9448 109.584 40.6822 109.818 40.347C110.052 40.0117 110.233 39.6226 110.359 39.1797C110.492 38.7306 110.559 38.2529 110.559 37.7468V37.3293C110.559 36.8232 110.495 36.3487 110.369 35.9059C110.249 35.4567 110.068 35.0645 109.828 34.7292C109.587 34.3876 109.287 34.1219 108.926 33.9321C108.566 33.736 108.148 33.6379 107.674 33.6379C106.984 33.6379 106.402 33.7391 105.928 33.9416C105.453 34.1377 105.058 34.3781 104.742 34.6628L104.049 33.4671C104.365 33.1634 104.814 32.8756 105.396 32.6035C105.985 32.3315 106.744 32.1955 107.674 32.1955ZM116.309 28.096V42.6719H114.544V28.096H116.309ZM125.182 40.9163V35.6307C125.182 35.2258 125.1 34.8747 124.935 34.5774C124.777 34.2737 124.537 34.0396 124.214 33.8751C123.891 33.7107 123.493 33.6284 123.018 33.6284C122.575 33.6284 122.186 33.7043 121.851 33.8562C121.522 34.008 121.263 34.2073 121.073 34.454C120.889 34.7007 120.798 34.9664 120.798 35.2511H119.042C119.042 34.8842 119.137 34.5204 119.327 34.1598C119.517 33.7992 119.789 33.4734 120.143 33.1824C120.504 32.8851 120.934 32.651 121.433 32.4802C121.94 32.303 122.503 32.2145 123.123 32.2145C123.869 32.2145 124.527 32.341 125.096 32.5941C125.672 32.8471 126.121 33.2299 126.444 33.7423C126.773 34.2484 126.937 34.8842 126.937 35.6497V40.4324C126.937 40.774 126.966 41.1377 127.023 41.5236C127.086 41.9096 127.178 42.2417 127.298 42.52V42.6719H125.467C125.378 42.4694 125.308 42.2006 125.258 41.8653C125.207 41.5236 125.182 41.2073 125.182 40.9163ZM125.485 36.4468L125.504 37.6804H123.73C123.23 37.6804 122.784 37.7215 122.392 37.8038C122 37.8797 121.671 37.9967 121.405 38.1549C121.139 38.313 120.937 38.5123 120.798 38.7527C120.659 38.9868 120.589 39.262 120.589 39.5783C120.589 39.9009 120.662 40.1951 120.807 40.4608C120.953 40.7265 121.171 40.9385 121.462 41.0966C121.759 41.2485 122.123 41.3244 122.553 41.3244C123.091 41.3244 123.565 41.2105 123.977 40.9827C124.388 40.755 124.714 40.4766 124.954 40.1477C125.201 39.8187 125.334 39.4992 125.353 39.1892L126.102 40.0338C126.058 40.2995 125.938 40.5937 125.742 40.9163C125.546 41.239 125.283 41.549 124.954 41.8463C124.631 42.1373 124.246 42.3809 123.796 42.577C123.354 42.7668 122.854 42.8617 122.297 42.8617C121.601 42.8617 120.991 42.7256 120.466 42.4536C119.947 42.1816 119.542 41.8178 119.251 41.3623C118.966 40.9005 118.824 40.3849 118.824 39.8155C118.824 39.2652 118.931 38.7812 119.147 38.3637C119.362 37.9398 119.672 37.5887 120.076 37.3103C120.481 37.0256 120.969 36.8105 121.538 36.665C122.107 36.5195 122.743 36.4468 123.445 36.4468H125.485ZM136.161 46.6195V34.3781L136.313 32.4043H137.926V46.6195H136.161ZM129.262 37.6519V37.4527C129.262 36.6682 129.354 35.9565 129.538 35.3175C129.721 34.6723 129.99 34.1187 130.344 33.6569C130.698 33.1951 131.125 32.8408 131.625 32.5941C132.131 32.341 132.707 32.2145 133.352 32.2145C133.998 32.2145 134.564 32.3284 135.051 32.5561C135.544 32.7775 135.962 33.1033 136.303 33.5335C136.651 33.9574 136.927 34.4698 137.129 35.0708C137.332 35.6718 137.471 36.3519 137.547 37.111V37.9841C137.477 38.7369 137.341 39.4138 137.139 40.0148C136.936 40.6158 136.661 41.1283 136.313 41.5521C135.971 41.976 135.551 42.3018 135.051 42.5295C134.557 42.751 133.985 42.8617 133.333 42.8617C132.701 42.8617 132.131 42.732 131.625 42.4726C131.125 42.2132 130.698 41.8495 130.344 41.3813C129.996 40.9132 129.727 40.3628 129.538 39.7301C129.354 39.0912 129.262 38.3984 129.262 37.6519ZM131.027 37.4527V37.6519C131.027 38.1644 131.081 38.6483 131.189 39.1038C131.296 39.553 131.461 39.9516 131.682 40.2995C131.91 40.6475 132.195 40.9226 132.536 41.1251C132.884 41.3212 133.295 41.4193 133.77 41.4193C134.352 41.4193 134.836 41.2927 135.222 41.0397C135.614 40.7866 135.927 40.4545 136.161 40.0433C136.395 39.6258 136.576 39.1797 136.702 38.7053V36.4183C136.632 36.0704 136.522 35.7319 136.37 35.4029C136.224 35.074 136.035 34.7798 135.801 34.5204C135.566 34.2547 135.282 34.0459 134.947 33.8941C134.618 33.736 134.232 33.6569 133.789 33.6569C133.308 33.6569 132.894 33.7581 132.546 33.9605C132.198 34.163 131.91 34.4413 131.682 34.7956C131.461 35.1436 131.296 35.5453 131.189 36.0008C131.081 36.4563 131.027 36.9402 131.027 37.4527ZM144.265 32.1955C144.974 32.1955 145.613 32.322 146.182 32.5751C146.758 32.8281 147.248 33.1856 147.653 33.6474C148.058 34.1029 148.368 34.6438 148.583 35.2701C148.804 35.8964 148.915 36.5828 148.915 37.3293V37.7468C148.915 38.4933 148.795 39.1797 148.554 39.8061C148.32 40.4324 147.998 40.9733 147.586 41.4288C147.175 41.8842 146.707 42.2385 146.182 42.4916C145.657 42.7383 145.107 42.8585 144.531 42.8522C143.822 42.8522 143.206 42.7415 142.68 42.52C142.155 42.2923 141.719 41.976 141.371 41.5711C141.029 41.1599 140.773 40.6759 140.602 40.1192C140.431 39.5625 140.346 38.9488 140.346 38.2782V37.1205H147.871V38.5629H142.102V38.8002C142.102 39.2557 142.187 39.6827 142.358 40.0812C142.529 40.4798 142.794 40.8024 143.155 41.0492C143.515 41.2959 143.974 41.4193 144.531 41.4193C144.91 41.4193 145.258 41.3244 145.575 41.1346C145.897 40.9448 146.176 40.6822 146.41 40.347C146.644 40.0117 146.824 39.6226 146.951 39.1797C147.084 38.7306 147.15 38.2529 147.15 37.7468V37.3293C147.15 36.8232 147.087 36.3487 146.96 35.9059C146.84 35.4567 146.66 35.0645 146.419 34.7292C146.179 34.3876 145.878 34.1219 145.518 33.9321C145.157 33.736 144.74 33.6379 144.265 33.6379C143.576 33.6379 142.994 33.7391 142.519 33.9416C142.045 34.1377 141.649 34.3781 141.333 34.6628L140.64 33.4671C140.957 33.1634 141.406 32.8756 141.988 32.6035C142.576 32.3315 143.335 32.1955 144.265 32.1955Z" fill="#263967"/>
<path fill-rule="evenodd" clip-rule="evenodd" d="M161.218 36.1713C161.218 35.2768 161.943 34.5518 162.838 34.5518H185.511C186.406 34.5518 187.131 35.2768 187.131 36.1713C187.131 37.0657 186.406 37.7908 185.511 37.7908H162.838C161.943 37.7908 161.218 37.0657 161.218 36.1713Z" fill="#263967"/>
<path fill-rule="evenodd" clip-rule="evenodd" d="M173.029 23.6902C173.662 23.0577 174.687 23.0577 175.32 23.6902L186.656 35.0269C187.289 35.6594 187.289 36.6848 186.656 37.3173L175.32 48.6541C174.687 49.2865 173.662 49.2865 173.029 48.6541C172.397 48.0216 172.397 46.9962 173.029 46.3637L183.221 36.1721L173.029 25.9805C172.397 25.3481 172.397 24.3226 173.029 23.6902Z" fill="#263967"/>
</g>
<defs>
<filter id="filter0_d_1231_4244" x="0.0642009" y="0.0639567" width="238.185" height="82.1436" filterUnits="userSpaceOnUse" color-interpolation-filters="sRGB">
<feFlood flood-opacity="0" result="BackgroundImageFix"/>
<feColorMatrix in="SourceAlpha" type="matrix" values="0 0 0 0 0 0 0 0 0 0 0 0 0 0 0 0 0 0 127 0" result="hardAlpha"/>
<feOffset dx="4.96436" dy="4.96436"/>
<feGaussianBlur stdDeviation="4.96436"/>
<feComposite in2="hardAlpha" operator="out"/>
<feColorMatrix type="matrix" values="0 0 0 0 0 0 0 0 0 0 0 0 0 0 0 0 0 0 0.25 0"/>
<feBlend mode="normal" in2="BackgroundImageFix" result="effect1_dropShadow_1231_4244"/>
<feBlend mode="normal" in="SourceGraphic" in2="effect1_dropShadow_1231_4244" result="shape"/>
</filter>
<linearGradient id="paint0_linear_1231_4244" x1="219.961" y1="13.8141" x2="6.13175" y2="47.0919" gradientUnits="userSpaceOnUse">
<stop stop-color="#5241F2"/>
<stop offset="1" stop-color="#F15858"/>
</linearGradient>
</defs>
</svg>
